<?xml version="1.0" encoding="UTF-8"?>
<!DOCTYPE svg PUBLIC "-//W3C//DTD SVG 1.1//EN" "http://www.w3.org/Graphics/SVG/1.1/DTD/svg11.dtd">
<!-- Creator: CorelDRAW -->
<svg xmlns="http://www.w3.org/2000/svg" xml:space="preserve" width="2134.03mm" height="1219.47mm"
  version="1.1"
  style="shape-rendering:geometricPrecision; text-rendering:geometricPrecision; image-rendering:optimizeQuality; fill-rule:evenodd; clip-rule:evenodd"
  viewBox="0 0 69674.58 39814.67"
  xmlns:xlink="http://www.w3.org/1999/xlink"
  xmlns:xodm="http://www.corel.com/coreldraw/odm/2003">
 <defs>
  <style type="text/css">
   <![CDATA[
    .fil0 {fill:#E6E6E6;fill-rule:nonzero}
    .fil18 {fill:url(#id0)}
    .fil12 {fill:url(#id1)}
    .fil34 {fill:url(#id2)}
    .fil30 {fill:url(#id3)}
    .fil22 {fill:url(#id4)}
    .fil27 {fill:url(#id5)}
    .fil32 {fill:url(#id6)}
    .fil25 {fill:url(#id7)}
    .fil15 {fill:url(#id8)}
    .fil24 {fill:url(#id9)}
    .fil5 {fill:url(#id10)}
    .fil36 {fill:url(#id11)}
    .fil3 {fill:url(#id12)}
    .fil16 {fill:url(#id13)}
    .fil21 {fill:url(#id14)}
    .fil35 {fill:url(#id15)}
    .fil7 {fill:url(#id16)}
    .fil11 {fill:url(#id17)}
    .fil6 {fill:url(#id18)}
    .fil14 {fill:url(#id19)}
    .fil28 {fill:url(#id20)}
    .fil13 {fill:url(#id21)}
    .fil23 {fill:url(#id22)}
    .fil9 {fill:url(#id23)}
    .fil33 {fill:url(#id24)}
    .fil4 {fill:url(#id25)}
    .fil19 {fill:url(#id26)}
    .fil10 {fill:url(#id27)}
    .fil1 {fill:url(#id28)}
    .fil20 {fill:url(#id29)}
    .fil29 {fill:url(#id30)}
    .fil17 {fill:url(#id31)}
    .fil2 {fill:url(#id32)}
    .fil8 {fill:url(#id33)}
    .fil26 {fill:url(#id34)}
    .fil31 {fill:url(#id35)}
   ]]>
  </style>
  <linearGradient id="id0" gradientUnits="userSpaceOnUse" x1="60451.85" y1="13863.69" x2="49036.4" y2="15998.13">
   <stop offset="0" style="stop-opacity:1; stop-color:#0088B3"/>
   <stop offset="1" style="stop-opacity:1; stop-color:#51B1DF"/>
  </linearGradient>
  <linearGradient id="id1" gradientUnits="userSpaceOnUse" x1="10365.88" y1="5471.91" x2="-411.11" y2="4481.64">
   <stop offset="0" style="stop-opacity:1; stop-color:#007EA3"/>
   <stop offset="1" style="stop-opacity:1; stop-color:#29B8E0"/>
  </linearGradient>
  <linearGradient id="id2" gradientUnits="userSpaceOnUse" x1="9953.23" y1="29860.95" x2="19907.16" y2="39814.76">
   <stop offset="0" style="stop-opacity:1; stop-color:#007EA8"/>
   <stop offset="1" style="stop-opacity:1; stop-color:#40A6CD"/>
  </linearGradient>
  <linearGradient id="id3" gradientUnits="userSpaceOnUse" x1="39813.69" y1="29861.33" x2="49767.07" y2="39814.67">
   <stop offset="0" style="stop-opacity:1; stop-color:#0087B2"/>
   <stop offset="1" style="stop-opacity:1; stop-color:#43AAD7"/>
  </linearGradient>
  <linearGradient id="id4" gradientUnits="userSpaceOnUse" x1="41786.56" y1="20849.8" x2="47794.4" y2="26857.64">
   <stop offset="0" style="stop-opacity:1; stop-color:#06576E"/>
   <stop offset="1" style="stop-opacity:1; stop-color:#007198"/>
  </linearGradient>
  <linearGradient id="id5" gradientUnits="userSpaceOnUse" xlink:href="#id0" x1="20637.95" y1="25951.49" x2="9222.51" y2="23817.05">
  </linearGradient>
  <linearGradient id="id6" gradientUnits="userSpaceOnUse" xlink:href="#id0" x1="60451.61" y1="35905.22" x2="49036.17" y2="33770.78">
  </linearGradient>
  <linearGradient id="id7" gradientUnits="userSpaceOnUse" xlink:href="#id3" x1="0.03" y1="19907.6" x2="9953.41" y2="29860.94">
  </linearGradient>
  <linearGradient id="id8" gradientUnits="userSpaceOnUse" x1="61953.34" y1="-1021.15" x2="67442.91" y2="10974.97">
   <stop offset="0" style="stop-opacity:1; stop-color:#0087B2"/>
   <stop offset="1" style="stop-opacity:1; stop-color:#47ADDA"/>
  </linearGradient>
  <linearGradient id="id9" gradientUnits="userSpaceOnUse" x1="67476.15" y1="30880.08" x2="61918.67" y2="18888.94">
   <stop offset="0" style="stop-opacity:1; stop-color:#06566D"/>
   <stop offset="1" style="stop-opacity:1; stop-color:#006C90"/>
  </linearGradient>
  <linearGradient id="id10" gradientUnits="userSpaceOnUse" xlink:href="#id8" x1="12185.52" y1="20928.81" x2="17675.09" y2="8932.69">
  </linearGradient>
  <linearGradient id="id11" gradientUnits="userSpaceOnUse" xlink:href="#id8" x1="2231.8" y1="40835.91" x2="7721.38" y2="28839.78">
  </linearGradient>
  <linearGradient id="id12" gradientUnits="userSpaceOnUse" xlink:href="#id2" x1="19906.93" y1="19907.69" x2="29860.86" y2="9953.89">
  </linearGradient>
  <linearGradient id="id13" gradientUnits="userSpaceOnUse" xlink:href="#id3" x1="59720.82" y1="19907.58" x2="69674.2" y2="9954.24">
  </linearGradient>
  <linearGradient id="id14" gradientUnits="userSpaceOnUse" xlink:href="#id2" x1="39813.45" y1="19907.61" x2="49767.38" y2="29861.41">
  </linearGradient>
  <linearGradient id="id15" gradientUnits="userSpaceOnUse" xlink:href="#id4" x1="11926.34" y1="30803.14" x2="17934.18" y2="36810.98">
  </linearGradient>
  <linearGradient id="id16" gradientUnits="userSpaceOnUse" x1="47512.63" y1="-1022.93" x2="42069.66" y2="10976.4">
   <stop offset="0" style="stop-opacity:1; stop-color:#095870"/>
   <stop offset="1" style="stop-opacity:1; stop-color:#006D92"/>
  </linearGradient>
  <linearGradient id="id17" gradientUnits="userSpaceOnUse" xlink:href="#id0" x1="20638.55" y1="3909.49" x2="9223.11" y2="6043.93">
  </linearGradient>
  <linearGradient id="id18" gradientUnits="userSpaceOnUse" xlink:href="#id9" x1="7755.64" y1="8935.22" x2="2198.16" y2="20926.36">
  </linearGradient>
  <linearGradient id="id19" gradientUnits="userSpaceOnUse" xlink:href="#id4" x1="51740.62" y1="11926.82" x2="57748.47" y2="5918.98">
  </linearGradient>
  <linearGradient id="id20" gradientUnits="userSpaceOnUse" xlink:href="#id16" x1="27605.14" y1="40837.69" x2="22162.18" y2="28838.35">
  </linearGradient>
  <linearGradient id="id21" gradientUnits="userSpaceOnUse" xlink:href="#id2" x1="49767.51" y1="9953.89" x2="59721.44" y2="0.08">
  </linearGradient>
  <linearGradient id="id22" gradientUnits="userSpaceOnUse" xlink:href="#id8" x1="51999.26" y1="18886.41" x2="57488.84" y2="30882.53">
  </linearGradient>
  <linearGradient id="id23" gradientUnits="userSpaceOnUse" xlink:href="#id3" x1="19907.52" y1="9953.38" x2="29860.9" y2="0.04">
  </linearGradient>
  <linearGradient id="id24" gradientUnits="userSpaceOnUse" xlink:href="#id1" x1="70085.78" y1="34342.93" x2="59308.79" y2="35333.2">
  </linearGradient>
  <linearGradient id="id25" gradientUnits="userSpaceOnUse" xlink:href="#id4" x1="21880.04" y1="21880.63" x2="27887.88" y2="15872.78">
  </linearGradient>
  <linearGradient id="id26" gradientUnits="userSpaceOnUse" x1="22627.94" y1="22872" x2="26503.03" y2="29335.79">
   <stop offset="0" style="stop-opacity:1; stop-color:#0087B4"/>
   <stop offset="1" style="stop-opacity:1; stop-color:#50B0DE"/>
  </linearGradient>
  <linearGradient id="id27" gradientUnits="userSpaceOnUse" x1="25826.5" y1="7980.44" x2="31833.88" y2="1973.07">
   <stop offset="0" style="stop-opacity:1; stop-color:#00739D"/>
   <stop offset="1" style="stop-opacity:1; stop-color:#2FB9E3"/>
  </linearGradient>
  <linearGradient id="id28" gradientUnits="userSpaceOnUse" xlink:href="#id26" x1="42535.79" y1="14405.06" x2="46410.88" y2="7941.27">
  </linearGradient>
  <linearGradient id="id29" gradientUnits="userSpaceOnUse" x1="30916.81" y1="21515.03" x2="36667.57" y2="28066.04">
   <stop offset="0" style="stop-opacity:1; stop-color:#065973"/>
   <stop offset="1" style="stop-opacity:1; stop-color:#006A8C"/>
  </linearGradient>
  <linearGradient id="id30" gradientUnits="userSpaceOnUse" x1="37632.47" y1="27430.55" x2="35207.86" y2="37575.31">
   <stop offset="0" style="stop-opacity:1; stop-color:#00739D"/>
   <stop offset="1" style="stop-opacity:1; stop-color:#11B2DB"/>
  </linearGradient>
  <linearGradient id="id31" gradientUnits="userSpaceOnUse" xlink:href="#id27" x1="65639.79" y1="17934.64" x2="71647.18" y2="11927.26">
  </linearGradient>
  <linearGradient id="id32" gradientUnits="userSpaceOnUse" xlink:href="#id29" x1="35894.69" y1="18112.32" x2="41645.45" y2="11561.31">
  </linearGradient>
  <linearGradient id="id33" gradientUnits="userSpaceOnUse" xlink:href="#id30" x1="37633.15" y1="7714.02" x2="35208.54" y2="-2430.74">
  </linearGradient>
  <linearGradient id="id34" gradientUnits="userSpaceOnUse" xlink:href="#id27" x1="942.3" y1="21880.62" x2="6949.68" y2="27888">
  </linearGradient>
  <linearGradient id="id35" gradientUnits="userSpaceOnUse" xlink:href="#id27" x1="40755.96" y1="31834.35" x2="46763.34" y2="37841.73">
  </linearGradient>
 </defs>
 <g id="Camada_x0020_1">
  <metadata id="CorelCorpID_0Corel-Layer"/>
  <polygon class="fil0" points="39814.37,19907.56 49767.75,19907.56 49767.75,9953.72 39814.37,9953.72 "/>
  <path class="fil1" d="M39814.37 9953.85l9953.38 0c0,2748.38 -2228.12,4976.71 -4976.71,4976.71 -2748.38,0 -4976.67,-2228.33 -4976.67,-4976.71z"/>
  <polygon class="fil0" points="29860.94,19907.56 39814.41,19907.56 39814.41,9953.72 29860.94,9953.72 "/>
  <path class="fil2" d="M39814.37 9953.85l0 9953.72c-2748.42,0 -4976.59,-2228.33 -4976.59,-4977 0,-2748.55 2228.16,-4976.71 4976.59,-4976.71z"/>
  <polygon class="fil3" points="19906.8,19907.56 29860.94,19907.56 29860.94,9953.85 19906.8,9953.85 "/>
  <path class="fil4" d="M29860.94 19907.56l-9954.14 0c0,-2748.88 2228.58,-4977 4977.13,-4977 2748.84,0 4977.01,2228.12 4977.01,4977z"/>
  <polygon class="fil5" points="9953.76,19907.56 19906.76,19907.56 19906.76,9953.85 9953.76,9953.85 "/>
  <path class="fil0" d="M19906.8 9953.85l0 9953.72c-2748.13,0 -4976.29,-2228.33 -4976.29,-4977 0,-2748.13 2228.16,-4976.71 4976.29,-4976.71z"/>
  <polygon class="fil6" points="-0,19907.56 9953.76,19907.56 9953.76,9953.85 -0,9953.85 "/>
  <path class="fil0" d="M9953.76 19907.56l-9953.76 0c0,-2748.88 2228.21,-4977 4977.05,-4977 2748.47,0 4976.71,2228.12 4976.71,4977z"/>
  <polygon class="fil7" points="39814.37,9953.38 49767.75,9953.38 49767.75,0 39814.37,0 "/>
  <path class="fil0" d="M49767.75 9953.38l-9953.38 0c0,-2748.38 2228.29,-4976.71 4977,-4976.71 2748.25,0 4976.37,2228.33 4976.37,4976.71z"/>
  <polygon class="fil8" points="29860.94,9953.38 39814.37,9953.38 39814.37,0 29860.94,0 "/>
  <path class="fil0" d="M39814.37 9953.38l-9953.42 0c0,-2748.08 2228.16,-4976.42 4976.84,-4976.42 2748.42,0 4976.59,2228.33 4976.59,4976.42z"/>
  <polygon class="fil9" points="19907.52,9953.38 29860.94,9953.38 29860.94,0 19907.52,0 "/>
  <path class="fil10" d="M29860.94 0l0 9953.38c-2748.55,0 -4976.71,-2228.12 -4976.71,-4976.71 0,-2748.38 2228.16,-4976.67 4976.71,-4976.67z"/>
  <polygon class="fil11" points="9954.05,9953.38 19907.52,9953.38 19907.52,0 9954.05,0 "/>
  <path class="fil0" d="M9954.05 0l9953.47 0c0,2748.55 -2228.16,4976.67 -4976.71,4976.67 -2748.42,0 -4976.75,-2228.12 -4976.75,-4976.67z"/>
  <polygon class="fil12" points="0.68,9953.38 9954.05,9953.38 9954.05,0 0.68,0 "/>
  <path class="fil0" d="M9954.05 9953.38l-9953.38 0c0,-2748.08 2228.21,-4976.42 4976.71,-4976.42 2748.46,0 4976.67,2228.33 4976.67,4976.42z"/>
  <polygon class="fil13" points="49767.39,9953.76 59721.53,9953.76 59721.53,0.04 49767.39,0.04 "/>
  <path class="fil14" d="M59721.53 9953.76l-9954.14 0c0,-2748.89 2228.58,-4977.01 4977.13,-4977.01 2748.84,0 4977.01,2228.12 4977.01,4977.01z"/>
  <polygon class="fil15" points="69674.58,0.01 59721.58,0.01 59721.58,9953.73 69674.58,9953.73 "/>
  <path class="fil0" d="M59721.54 9953.73l0 -9953.72c2748.12,0 4976.29,2228.33 4976.29,4977.01 0,2748.13 -2228.16,4976.71 -4976.29,4976.71z"/>
  <polygon class="fil16" points="59720.82,19907.58 69674.24,19907.58 69674.24,9954.2 59720.82,9954.2 "/>
  <path class="fil17" d="M69674.24 9954.2l0 9953.38c-2748.55,0 -4976.71,-2228.12 -4976.71,-4976.71 0,-2748.38 2228.16,-4976.67 4976.71,-4976.67z"/>
  <polygon class="fil18" points="49767.35,19907.58 59720.82,19907.58 59720.82,9954.2 49767.35,9954.2 "/>
  <path class="fil0" d="M49767.35 9954.2l9953.47 0c0,2748.55 -2228.16,4976.67 -4976.71,4976.67 -2748.42,0 -4976.75,-2228.12 -4976.75,-4976.67z"/>
  <polygon class="fil0" points="29859.9,19907.57 19906.52,19907.57 19906.52,29861.41 29859.9,29861.41 "/>
  <path class="fil19" d="M29859.9 29861.29l-9953.38 0c0,-2748.38 2228.12,-4976.71 4976.71,-4976.71 2748.38,0 4976.67,2228.33 4976.67,4976.71z"/>
  <polygon class="fil0" points="39813.32,19907.57 29859.86,19907.57 29859.86,29861.41 39813.32,29861.41 "/>
  <path class="fil20" d="M29859.9 29861.29l0 -9953.72c2748.42,0 4976.58,2228.33 4976.58,4977.01 0,2748.55 -2228.16,4976.71 -4976.58,4976.71z"/>
  <polygon class="fil21" points="49767.46,19907.57 39813.32,19907.57 39813.32,29861.29 49767.46,29861.29 "/>
  <path class="fil22" d="M39813.32 19907.57l9954.14 0c0,2748.89 -2228.58,4977.01 -4977.13,4977.01 -2748.84,0 -4977.01,-2228.12 -4977.01,-4977.01z"/>
  <polygon class="fil23" points="59720.51,19907.57 49767.51,19907.57 49767.51,29861.29 59720.51,29861.29 "/>
  <path class="fil0" d="M49767.46 29861.29l0 -9953.72c2748.13,0 4976.29,2228.33 4976.29,4977.01 0,2748.13 -2228.16,4976.71 -4976.29,4976.71z"/>
  <polygon class="fil24" points="69674.27,19907.57 59720.51,19907.57 59720.51,29861.29 69674.27,29861.29 "/>
  <path class="fil0" d="M59720.51 19907.57l9953.76 0c0,2748.89 -2228.21,4977.01 -4977.05,4977.01 -2748.47,0 -4976.71,-2228.12 -4976.71,-4977.01z"/>
  <polygon class="fil25" points="9953.45,19907.55 0.03,19907.55 0.03,29860.94 9953.45,29860.94 "/>
  <path class="fil26" d="M0.03 29860.94l0 -9953.38c2748.55,0 4976.71,2228.12 4976.71,4976.71 0,2748.38 -2228.16,4976.67 -4976.71,4976.67z"/>
  <polygon class="fil27" points="19906.92,19907.55 9953.45,19907.55 9953.45,29860.94 19906.92,29860.94 "/>
  <path class="fil0" d="M19906.92 29860.94l-9953.47 0c0,-2748.55 2228.16,-4976.67 4976.71,-4976.67 2748.42,0 4976.75,2228.12 4976.75,4976.67z"/>
  <polygon class="fil28" points="29860.26,29861.29 19906.89,29861.29 19906.89,39814.67 29860.26,39814.67 "/>
  <path class="fil0" d="M19906.89 29861.29l9953.38 0c0,2748.38 -2228.29,4976.71 -4977.01,4976.71 -2748.25,0 -4976.37,-2228.33 -4976.37,-4976.71z"/>
  <polygon class="fil29" points="39813.69,29861.29 29860.26,29861.29 29860.26,39814.67 39813.69,39814.67 "/>
  <path class="fil0" d="M29860.26 29861.29l9953.42 0c0,2748.08 -2228.16,4976.42 -4976.84,4976.42 -2748.42,0 -4976.59,-2228.33 -4976.59,-4976.42z"/>
  <polygon class="fil30" points="49767.11,29861.29 39813.69,29861.29 39813.69,39814.67 49767.11,39814.67 "/>
  <path class="fil31" d="M39813.69 39814.67l0 -9953.38c2748.55,0 4976.71,2228.12 4976.71,4976.71 0,2748.38 -2228.16,4976.67 -4976.71,4976.67z"/>
  <polygon class="fil32" points="59720.58,29861.29 49767.11,29861.29 49767.11,39814.67 59720.58,39814.67 "/>
  <path class="fil0" d="M59720.58 39814.67l-9953.47 0c0,-2748.55 2228.16,-4976.67 4976.71,-4976.67 2748.42,0 4976.76,2228.12 4976.76,4976.67z"/>
  <polygon class="fil33" points="69673.96,29861.29 59720.58,29861.29 59720.58,39814.67 69673.96,39814.67 "/>
  <path class="fil0" d="M59720.58 29861.29l9953.38 0c0,2748.08 -2228.21,4976.42 -4976.71,4976.42 -2748.46,0 -4976.67,-2228.33 -4976.67,-4976.42z"/>
  <polygon class="fil34" points="19907.24,29860.91 9953.1,29860.91 9953.1,39814.63 19907.24,39814.63 "/>
  <path class="fil35" d="M9953.1 29860.91l9954.14 0c0,2748.89 -2228.58,4977.01 -4977.13,4977.01 -2748.84,0 -4977.01,-2228.12 -4977.01,-4977.01z"/>
  <polygon class="fil36" points="0.05,39814.66 9953.05,39814.66 9953.05,29860.94 0.05,29860.94 "/>
  <path class="fil0" d="M9953.09 29860.94l0 9953.72c-2748.13,0 -4976.29,-2228.33 -4976.29,-4977.01 0,-2748.12 2228.16,-4976.71 4976.29,-4976.71z"/>
 </g>
</svg>