<?xml version="1.0" encoding="UTF-8"?>
<!DOCTYPE svg PUBLIC "-//W3C//DTD SVG 1.1//EN" "http://www.w3.org/Graphics/SVG/1.1/DTD/svg11.dtd">
<!-- Creator: CorelDRAW -->
<svg xmlns="http://www.w3.org/2000/svg" xml:space="preserve" width="4268.05mm" height="1524.34mm" version="1.1" style="shape-rendering:geometricPrecision; text-rendering:geometricPrecision; image-rendering:optimizeQuality; fill-rule:evenodd; clip-rule:evenodd"
viewBox="0 0 168119.17 60043.86"
 xmlns:xlink="http://www.w3.org/1999/xlink"
 xmlns:xodm="http://www.corel.com/coreldraw/odm/2003">
 <defs>
  <style type="text/css">
   <![CDATA[
    .fil0 {fill:#E6E6E6;fill-rule:nonzero}
    .fil4 {fill:url(#id0)}
    .fil45 {fill:url(#id1)}
    .fil30 {fill:url(#id2)}
    .fil33 {fill:url(#id3)}
    .fil44 {fill:url(#id4)}
    .fil34 {fill:url(#id5)}
    .fil57 {fill:url(#id6)}
    .fil32 {fill:url(#id7)}
    .fil22 {fill:url(#id8)}
    .fil54 {fill:url(#id9)}
    .fil58 {fill:url(#id10)}
    .fil52 {fill:url(#id11)}
    .fil36 {fill:url(#id12)}
    .fil6 {fill:url(#id13)}
    .fil13 {fill:url(#id14)}
    .fil24 {fill:url(#id15)}
    .fil21 {fill:url(#id16)}
    .fil46 {fill:url(#id17)}
    .fil51 {fill:url(#id18)}
    .fil40 {fill:url(#id19)}
    .fil15 {fill:url(#id20)}
    .fil59 {fill:url(#id21)}
    .fil16 {fill:url(#id22)}
    .fil50 {fill:url(#id23)}
    .fil5 {fill:url(#id24)}
    .fil3 {fill:url(#id25)}
    .fil47 {fill:url(#id26)}
    .fil25 {fill:url(#id27)}
    .fil12 {fill:url(#id28)}
    .fil7 {fill:url(#id29)}
    .fil11 {fill:url(#id30)}
    .fil35 {fill:url(#id31)}
    .fil9 {fill:url(#id32)}
    .fil43 {fill:url(#id33)}
    .fil41 {fill:url(#id34)}
    .fil55 {fill:url(#id35)}
    .fil14 {fill:url(#id36)}
    .fil23 {fill:url(#id37)}
    .fil28 {fill:url(#id38)}
    .fil38 {fill:url(#id39)}
    .fil39 {fill:url(#id40)}
    .fil27 {fill:url(#id41)}
    .fil18 {fill:url(#id42)}
    .fil49 {fill:url(#id43)}
    .fil26 {fill:url(#id44)}
    .fil37 {fill:url(#id45)}
    .fil10 {fill:url(#id46)}
    .fil29 {fill:url(#id47)}
    .fil8 {fill:url(#id48)}
    .fil48 {fill:url(#id49)}
    .fil20 {fill:url(#id50)}
    .fil17 {fill:url(#id51)}
    .fil56 {fill:url(#id52)}
    .fil19 {fill:url(#id53)}
    .fil1 {fill:url(#id54)}
    .fil2 {fill:url(#id55)}
    .fil42 {fill:url(#id56)}
    .fil31 {fill:url(#id57)}
    .fil53 {fill:url(#id58)}
   ]]>
  </style>
  <linearGradient id="id0" gradientUnits="objectBoundingBox" x1="19.8231%" y1="139.644%" x2="80.1784%" y2="18.9317%">
   <stop offset="0" style="stop-opacity:1; stop-color:#06576E"/>
   <stop offset="1" style="stop-opacity:1; stop-color:#007198"/>
  </linearGradient>
  <linearGradient id="id1" gradientUnits="userSpaceOnUse" x1="144101.98" y1="12009.02" x2="156111.05" y2="0.1">
   <stop offset="0" style="stop-opacity:1; stop-color:#007EA8"/>
   <stop offset="1" style="stop-opacity:1; stop-color:#40A6CD"/>
  </linearGradient>
  <linearGradient id="id2" gradientUnits="userSpaceOnUse" x1="48033.85" y1="36026.67" x2="60042.26" y2="48035.03">
   <stop offset="0" style="stop-opacity:1; stop-color:#0087B2"/>
   <stop offset="1" style="stop-opacity:1; stop-color:#43AAD7"/>
  </linearGradient>
  <linearGradient id="id3" gradientUnits="objectBoundingBox" x1="0%" y1="45.0247%" x2="104.137%" y2="54.9737%">
   <stop offset="0" style="stop-opacity:1; stop-color:#007EA3"/>
   <stop offset="1" style="stop-opacity:1; stop-color:#29B8E0"/>
  </linearGradient>
  <linearGradient id="id4" gradientUnits="userSpaceOnUse" xlink:href="#id3" x1="96565.26" y1="6601.67" x2="83563.19" y2="5406.95">
  </linearGradient>
  <linearGradient id="id5" gradientUnits="objectBoundingBox" xlink:href="#id1" x1="99.9987%" y1="0%" x2="0.000938033%" y2="99.9994%">
  </linearGradient>
  <linearGradient id="id6" gradientUnits="userSpaceOnUse" xlink:href="#id2" x1="132093.03" y1="36026.67" x2="144101.44" y2="48035.03">
  </linearGradient>
  <linearGradient id="id7" gradientUnits="userSpaceOnUse" x1="72932.79" y1="43318.42" x2="59160.45" y2="40743.29">
   <stop offset="0" style="stop-opacity:1; stop-color:#0088B3"/>
   <stop offset="1" style="stop-opacity:1; stop-color:#51B1DF"/>
  </linearGradient>
  <linearGradient id="id8" gradientUnits="objectBoundingBox" xlink:href="#id0" x1="80.1769%" y1="0%" x2="19.8216%" y2="81.0683%">
  </linearGradient>
  <linearGradient id="id9" gradientUnits="userSpaceOnUse" xlink:href="#id7" x1="108958.16" y1="31309.58" x2="95185.82" y2="28734.45">
  </linearGradient>
  <linearGradient id="id10" gradientUnits="userSpaceOnUse" xlink:href="#id7" x1="156991.97" y1="43318.42" x2="143219.63" y2="40743.29">
  </linearGradient>
  <linearGradient id="id11" gradientUnits="userSpaceOnUse" xlink:href="#id2" x1="84059.22" y1="24017.83" x2="96067.63" y2="36026.2">
  </linearGradient>
  <linearGradient id="id12" gradientUnits="userSpaceOnUse" x1="2692.6" y1="49267.12" x2="9315.58" y2="34794.21">
   <stop offset="0" style="stop-opacity:1; stop-color:#0087B2"/>
   <stop offset="1" style="stop-opacity:1; stop-color:#47ADDA"/>
  </linearGradient>
  <linearGradient id="id13" gradientUnits="objectBoundingBox" x1="77.9169%" y1="0%" x2="22.0836%" y2="110.235%">
   <stop offset="0" style="stop-opacity:1; stop-color:#06566D"/>
   <stop offset="1" style="stop-opacity:1; stop-color:#006C90"/>
  </linearGradient>
  <linearGradient id="id14" gradientUnits="userSpaceOnUse" xlink:href="#id1" x1="60042.8" y1="12009.02" x2="72051.87" y2="0.1">
  </linearGradient>
  <linearGradient id="id15" gradientUnits="userSpaceOnUse" xlink:href="#id13" x1="81407.66" y1="37255.76" x2="74702.75" y2="22788.86">
  </linearGradient>
  <linearGradient id="id16" gradientUnits="userSpaceOnUse" xlink:href="#id1" x1="48033.56" y1="24017.85" x2="60042.64" y2="36026.77">
  </linearGradient>
  <linearGradient id="id17" gradientUnits="userSpaceOnUse" xlink:href="#id12" x1="158803.76" y1="-1231.99" x2="165426.74" y2="13240.93">
  </linearGradient>
  <linearGradient id="id18" gradientUnits="userSpaceOnUse" xlink:href="#id13" x1="165466.84" y1="37255.76" x2="158761.93" y2="22788.86">
  </linearGradient>
  <linearGradient id="id19" gradientUnits="objectBoundingBox" xlink:href="#id12" x1="22.4231%" y1="110.26%" x2="77.578%" y2="0%">
  </linearGradient>
  <linearGradient id="id20" gradientUnits="userSpaceOnUse" xlink:href="#id12" x1="74744.58" y1="-1231.99" x2="81367.56" y2="13240.93">
  </linearGradient>
  <linearGradient id="id21" gradientUnits="userSpaceOnUse" xlink:href="#id12" x1="86751.77" y1="49267.12" x2="93374.76" y2="34794.21">
  </linearGradient>
  <linearGradient id="id22" gradientUnits="objectBoundingBox" xlink:href="#id2" x1="6.03782e-05%" y1="100%" x2="99.9995%" y2="0.000247915%">
  </linearGradient>
  <linearGradient id="id23" gradientUnits="userSpaceOnUse" xlink:href="#id1" x1="132092.74" y1="24017.85" x2="144101.82" y2="36026.77">
  </linearGradient>
  <linearGradient id="id24" gradientUnits="objectBoundingBox" xlink:href="#id12" x1="22.4231%" y1="110.26%" x2="77.578%" y2="0%">
  </linearGradient>
  <linearGradient id="id25" gradientUnits="objectBoundingBox" xlink:href="#id1" x1="0.00128454%" y1="100.001%" x2="99.9991%" y2="0.000627813%">
  </linearGradient>
  <linearGradient id="id26" gradientUnits="objectBoundingBox" xlink:href="#id2" x1="6.03782e-05%" y1="100%" x2="99.9995%" y2="0.000247915%">
  </linearGradient>
  <linearGradient id="id27" gradientUnits="userSpaceOnUse" xlink:href="#id2" x1="0.04" y1="24017.83" x2="12008.45" y2="36026.2">
  </linearGradient>
  <linearGradient id="id28" gradientUnits="userSpaceOnUse" xlink:href="#id3" x1="12506.08" y1="6601.67" x2="-495.99" y2="5406.95">
  </linearGradient>
  <linearGradient id="id29" gradientUnits="objectBoundingBox" x1="77.3432%" y1="0%" x2="22.6584%" y2="110.278%">
   <stop offset="0" style="stop-opacity:1; stop-color:#095870"/>
   <stop offset="1" style="stop-opacity:1; stop-color:#006D92"/>
  </linearGradient>
  <linearGradient id="id30" gradientUnits="userSpaceOnUse" xlink:href="#id7" x1="24899.7" y1="4716.67" x2="11127.37" y2="7291.8">
  </linearGradient>
  <linearGradient id="id31" gradientUnits="objectBoundingBox" xlink:href="#id0" x1="80.1769%" y1="0%" x2="19.8216%" y2="81.0683%">
  </linearGradient>
  <linearGradient id="id32" gradientUnits="objectBoundingBox" xlink:href="#id2" x1="5.88912e-05%" y1="100%" x2="99.9995%" y2="0.000276976%">
  </linearGradient>
  <linearGradient id="id33" gradientUnits="userSpaceOnUse" xlink:href="#id7" x1="108958.88" y1="4716.67" x2="95186.55" y2="7291.8">
  </linearGradient>
  <linearGradient id="id34" gradientUnits="objectBoundingBox" xlink:href="#id13" x1="77.9169%" y1="0%" x2="22.0836%" y2="110.235%">
  </linearGradient>
  <linearGradient id="id35" gradientUnits="userSpaceOnUse" xlink:href="#id29" x1="117363.84" y1="49269.27" x2="110797.09" y2="34792.48">
  </linearGradient>
  <linearGradient id="id36" gradientUnits="objectBoundingBox" xlink:href="#id0" x1="19.8231%" y1="139.644%" x2="80.1784%" y2="18.9317%">
  </linearGradient>
  <linearGradient id="id37" gradientUnits="objectBoundingBox" xlink:href="#id12" x1="77.5769%" y1="0%" x2="22.422%" y2="110.259%">
  </linearGradient>
  <linearGradient id="id38" gradientUnits="userSpaceOnUse" xlink:href="#id29" x1="33304.66" y1="49269.27" x2="26737.91" y2="34792.48">
  </linearGradient>
  <linearGradient id="id39" gradientUnits="objectBoundingBox" xlink:href="#id1" x1="0.00128454%" y1="100.001%" x2="99.9991%" y2="0.000627813%">
  </linearGradient>
  <linearGradient id="id40" gradientUnits="objectBoundingBox" xlink:href="#id0" x1="19.8231%" y1="139.644%" x2="80.1784%" y2="18.9317%">
  </linearGradient>
  <linearGradient id="id41" gradientUnits="userSpaceOnUse" xlink:href="#id7" x1="24898.98" y1="31309.58" x2="11126.64" y2="28734.45">
  </linearGradient>
  <linearGradient id="id42" gradientUnits="objectBoundingBox" xlink:href="#id7" x1="107.345%" y1="39.278%" x2="0%" y2="60.7225%">
  </linearGradient>
  <linearGradient id="id43" gradientUnits="userSpaceOnUse" x1="111359.01" y1="27594.28" x2="116034.18" y2="35392.62">
   <stop offset="0" style="stop-opacity:1; stop-color:#0087B4"/>
   <stop offset="1" style="stop-opacity:1; stop-color:#50B0DE"/>
  </linearGradient>
  <linearGradient id="id44" gradientUnits="userSpaceOnUse" x1="1136.85" y1="26398.22" x2="8384.55" y2="33645.91">
   <stop offset="0" style="stop-opacity:1; stop-color:#00739D"/>
   <stop offset="1" style="stop-opacity:1; stop-color:#2FB9E3"/>
  </linearGradient>
  <linearGradient id="id45" gradientUnits="objectBoundingBox" xlink:href="#id43" x1="27.3415%" y1="89.4411%" x2="66.2741%" y2="0%">
  </linearGradient>
  <linearGradient id="id46" gradientUnits="objectBoundingBox" xlink:href="#id44" x1="18.9336%" y1="80.1783%" x2="139.644%" y2="19.823%">
  </linearGradient>
  <linearGradient id="id47" gradientUnits="userSpaceOnUse" x1="45402.29" y1="33094.01" x2="42477.07" y2="45333.32">
   <stop offset="0" style="stop-opacity:1; stop-color:#00739D"/>
   <stop offset="1" style="stop-opacity:1; stop-color:#11B2DB"/>
  </linearGradient>
  <linearGradient id="id48" gradientUnits="userSpaceOnUse" xlink:href="#id47" x1="45403.11" y1="9306.7" x2="42477.89" y2="-2932.6">
  </linearGradient>
  <linearGradient id="id49" gradientUnits="objectBoundingBox" xlink:href="#id44" x1="18.9337%" y1="80.1783%" x2="139.644%" y2="19.823%">
  </linearGradient>
  <linearGradient id="id50" gradientUnits="objectBoundingBox" x1="78.7622%" y1="18.0361%" x2="0%" y2="83.8508%">
   <stop offset="0" style="stop-opacity:1; stop-color:#065973"/>
   <stop offset="1" style="stop-opacity:1; stop-color:#006A8C"/>
  </linearGradient>
  <linearGradient id="id51" gradientUnits="objectBoundingBox" xlink:href="#id44" x1="18.9337%" y1="80.1783%" x2="139.644%" y2="19.823%">
  </linearGradient>
  <linearGradient id="id52" gradientUnits="userSpaceOnUse" xlink:href="#id47" x1="129461.47" y1="33094.01" x2="126536.25" y2="45333.32">
  </linearGradient>
  <linearGradient id="id53" gradientUnits="userSpaceOnUse" xlink:href="#id43" x1="27299.83" y1="27594.28" x2="31975" y2="35392.62">
  </linearGradient>
  <linearGradient id="id54" gradientUnits="objectBoundingBox" xlink:href="#id43" x1="27.3415%" y1="89.4411%" x2="66.2741%" y2="0%">
  </linearGradient>
  <linearGradient id="id55" gradientUnits="objectBoundingBox" xlink:href="#id50" x1="21.2378%" y1="81.9639%" x2="136.794%" y2="16.1492%">
  </linearGradient>
  <linearGradient id="id56" gradientUnits="userSpaceOnUse" xlink:href="#id47" x1="129462.29" y1="9306.7" x2="126537.07" y2="-2932.6">
  </linearGradient>
  <linearGradient id="id57" gradientUnits="objectBoundingBox" xlink:href="#id44" x1="81.0663%" y1="19.8217%" x2="0%" y2="80.177%">
  </linearGradient>
  <linearGradient id="id58" gradientUnits="userSpaceOnUse" xlink:href="#id44" x1="85196.03" y1="26398.22" x2="92443.73" y2="33645.91">
  </linearGradient>
 </defs>
 <g id="Camada_x0020_1">
  <metadata id="CorelCorpID_0Corel-Layer"/>
  <polygon class="fil0" points="48034.67,24017.79 60043.08,24017.79 60043.08,12008.82 48034.67,12008.82 "/>
  <path class="fil1" d="M48034.67 12008.97l12008.41 0c0,3315.83 -2688.15,6004.23 -6004.23,6004.23 -3315.83,0 -6004.18,-2688.41 -6004.18,-6004.23z"/>
  <polygon class="fil0" points="36026.2,24017.79 48034.72,24017.79 48034.72,12008.82 36026.2,12008.82 "/>
  <path class="fil2" d="M48034.67 12008.97l0 12008.82c-3315.88,0 -6004.08,-2688.4 -6004.08,-6004.59 0,-3316.03 2688.2,-6004.23 6004.08,-6004.23z"/>
  <polygon class="fil3" points="24016.88,24017.79 36026.2,24017.79 36026.2,12008.97 24016.88,12008.97 "/>
  <path class="fil4" d="M36026.2 24017.79l-12009.33 0c0,-3316.43 2688.71,-6004.59 6004.74,-6004.59 3316.39,0 6004.59,2688.15 6004.59,6004.59z"/>
  <polygon class="fil5" points="12008.87,24017.79 24016.82,24017.79 24016.82,12008.97 12008.87,12008.97 "/>
  <path class="fil0" d="M24016.88 12008.97l0 12008.82c-3315.52,0 -6003.72,-2688.4 -6003.72,-6004.59 0,-3315.52 2688.2,-6004.23 6003.72,-6004.23z"/>
  <polygon class="fil6" points="-0,24017.79 12008.87,24017.79 12008.87,12008.97 -0,12008.97 "/>
  <path class="fil0" d="M12008.87 24017.79l-12008.87 0c0,-3316.43 2688.25,-6004.59 6004.64,-6004.59 3315.93,0 6004.23,2688.15 6004.23,6004.59z"/>
  <polygon class="fil7" points="48034.67,12008.41 60043.08,12008.41 60043.08,0 48034.67,0 "/>
  <path class="fil0" d="M60043.08 12008.41l-12008.41 0c0,-3315.82 2688.35,-6004.23 6004.59,-6004.23 3315.67,0 6003.83,2688.41 6003.83,6004.23z"/>
  <polygon class="fil8" points="36026.2,12008.41 48034.67,12008.41 48034.67,0 36026.2,0 "/>
  <path class="fil0" d="M48034.67 12008.41l-12008.47 0c0,-3315.47 2688.2,-6003.88 6004.38,-6003.88 3315.88,0 6004.08,2688.41 6004.08,6003.88z"/>
  <polygon class="fil9" points="24017.74,12008.41 36026.2,12008.41 36026.2,0 24017.74,0 "/>
  <path class="fil10" d="M36026.2 0l0 12008.41c-3316.03,0 -6004.23,-2688.15 -6004.23,-6004.23 0,-3315.83 2688.2,-6004.18 6004.23,-6004.18z"/>
  <polygon class="fil11" points="12009.23,12008.41 24017.74,12008.41 24017.74,0 12009.23,0 "/>
  <path class="fil0" d="M12009.23 0l12008.52 0c0,3316.03 -2688.2,6004.18 -6004.23,6004.18 -3315.87,0 -6004.28,-2688.15 -6004.28,-6004.18z"/>
  <polygon class="fil12" points="0.82,12008.41 12009.23,12008.41 12009.23,0 0.82,0 "/>
  <path class="fil0" d="M12009.23 12008.41l-12008.41 0c0,-3315.47 2688.25,-6003.88 6004.23,-6003.88 3315.93,0 6004.18,2688.41 6004.18,6003.88z"/>
  <polygon class="fil13" points="60042.65,12008.87 72051.97,12008.87 72051.97,0.05 60042.65,0.05 "/>
  <path class="fil14" d="M72051.97 12008.87l-12009.33 0c0,-3316.44 2688.71,-6004.59 6004.74,-6004.59 3316.39,0 6004.59,2688.15 6004.59,6004.59z"/>
  <polygon class="fil15" points="84060,0.01 72052.04,0.01 72052.04,12008.83 84060,12008.83 "/>
  <path class="fil0" d="M72051.99 12008.83l0 -12008.82c3315.52,0 6003.72,2688.41 6003.72,6004.59 0,3315.52 -2688.2,6004.23 -6003.72,6004.23z"/>
  <polygon class="fil16" points="72051.12,24017.81 84059.58,24017.81 84059.58,12009.4 72051.12,12009.4 "/>
  <path class="fil17" d="M84059.58 12009.4l0 12008.41c-3316.03,0 -6004.23,-2688.15 -6004.23,-6004.23 0,-3315.83 2688.2,-6004.18 6004.23,-6004.18z"/>
  <polygon class="fil18" points="60042.6,24017.81 72051.12,24017.81 72051.12,12009.4 60042.6,12009.4 "/>
  <path class="fil0" d="M60042.6 12009.4l12008.52 0c0,3316.03 -2688.2,6004.18 -6004.23,6004.18 -3315.87,0 -6004.28,-2688.15 -6004.28,-6004.18z"/>
  <polygon class="fil0" points="36024.95,24017.8 24016.53,24017.8 24016.53,36026.77 36024.95,36026.77 "/>
  <path class="fil19" d="M36024.95 36026.62l-12008.41 0c0,-3315.82 2688.15,-6004.23 6004.23,-6004.23 3315.83,0 6004.18,2688.41 6004.18,6004.23z"/>
  <polygon class="fil0" points="48033.41,24017.8 36024.9,24017.8 36024.9,36026.77 48033.41,36026.77 "/>
  <path class="fil20" d="M36024.95 36026.62l0 -12008.82c3315.87,0 6004.08,2688.41 6004.08,6004.59 0,3316.03 -2688.2,6004.23 -6004.08,6004.23z"/>
  <polygon class="fil21" points="60042.74,24017.8 48033.41,24017.8 48033.41,36026.62 60042.74,36026.62 "/>
  <path class="fil22" d="M48033.41 24017.8l12009.33 0c0,3316.44 -2688.71,6004.59 -6004.74,6004.59 -3316.39,0 -6004.59,-2688.15 -6004.59,-6004.59z"/>
  <polygon class="fil23" points="72050.74,24017.8 60042.79,24017.8 60042.79,36026.62 72050.74,36026.62 "/>
  <path class="fil0" d="M60042.74 36026.62l0 -12008.82c3315.52,0 6003.72,2688.41 6003.72,6004.59 0,3315.52 -2688.2,6004.23 -6003.72,6004.23z"/>
  <polygon class="fil24" points="84059.61,24017.8 72050.74,24017.8 72050.74,36026.62 84059.61,36026.62 "/>
  <path class="fil0" d="M72050.74 24017.8l12008.87 0c0,3316.44 -2688.25,6004.59 -6004.64,6004.59 -3315.93,0 -6004.23,-2688.15 -6004.23,-6004.59z"/>
  <polygon class="fil25" points="12008.5,24017.78 0.04,24017.78 0.04,36026.2 12008.5,36026.2 "/>
  <path class="fil26" d="M0.04 36026.2l0 -12008.41c3316.03,0 6004.23,2688.15 6004.23,6004.23 0,3315.83 -2688.2,6004.18 -6004.23,6004.18z"/>
  <polygon class="fil27" points="24017.01,24017.78 12008.5,24017.78 12008.5,36026.2 24017.01,36026.2 "/>
  <path class="fil0" d="M24017.01 36026.2l-12008.52 0c0,-3316.03 2688.2,-6004.18 6004.23,-6004.18 3315.87,0 6004.28,2688.16 6004.28,6004.18z"/>
  <polygon class="fil28" points="36025.38,36026.62 24016.97,36026.62 24016.97,48035.03 36025.38,48035.03 "/>
  <path class="fil0" d="M24016.97 36026.62l12008.41 0c0,3315.83 -2688.36,6004.23 -6004.59,6004.23 -3315.67,0 -6003.82,-2688.4 -6003.82,-6004.23z"/>
  <polygon class="fil29" points="48033.85,36026.62 36025.38,36026.62 36025.38,48035.03 48033.85,48035.03 "/>
  <path class="fil0" d="M36025.38 36026.62l12008.47 0c0,3315.47 -2688.2,6003.88 -6004.38,6003.88 -3315.88,0 -6004.08,-2688.41 -6004.08,-6003.88z"/>
  <polygon class="fil30" points="60042.31,36026.62 48033.85,36026.62 48033.85,48035.03 60042.31,48035.03 "/>
  <path class="fil31" d="M48033.85 48035.03l0 -12008.41c3316.03,0 6004.23,2688.15 6004.23,6004.23 0,3315.83 -2688.2,6004.18 -6004.23,6004.18z"/>
  <polygon class="fil32" points="72050.83,36026.62 60042.31,36026.62 60042.31,48035.03 72050.83,48035.03 "/>
  <path class="fil0" d="M72050.83 48035.03l-12008.52 0c0,-3316.03 2688.2,-6004.18 6004.23,-6004.18 3315.88,0 6004.29,2688.15 6004.29,6004.18z"/>
  <polygon class="fil33" points="84059.24,36026.62 72050.83,36026.62 72050.83,48035.03 84059.24,48035.03 "/>
  <path class="fil0" d="M72050.83 36026.62l12008.41 0c0,3315.47 -2688.25,6003.88 -6004.23,6003.88 -3315.93,0 -6004.18,-2688.41 -6004.18,-6003.88z"/>
  <polygon class="fil34" points="24017.41,36026.16 12008.08,36026.16 12008.08,48034.98 24017.41,48034.98 "/>
  <path class="fil35" d="M12008.08 36026.16l12009.33 0c0,3316.44 -2688.71,6004.59 -6004.74,6004.59 -3316.39,0 -6004.59,-2688.15 -6004.59,-6004.59z"/>
  <polygon class="fil36" points="0.06,48035.02 12008.01,48035.02 12008.01,36026.2 0.06,36026.2 "/>
  <path class="fil0" d="M12008.06 36026.2l0 12008.82c-3315.52,0 -6003.72,-2688.41 -6003.72,-6004.59 0,-3315.52 2688.2,-6004.23 6003.72,-6004.23z"/>
  <polygon class="fil0" points="132093.85,24017.79 144102.26,24017.79 144102.26,12008.82 132093.85,12008.82 "/>
  <path class="fil37" d="M132093.85 12008.97l12008.41 0c0,3315.83 -2688.15,6004.23 -6004.23,6004.23 -3315.83,0 -6004.18,-2688.41 -6004.18,-6004.23z"/>
  <polygon class="fil0" points="120085.38,24017.79 132093.9,24017.79 132093.9,12008.82 120085.38,12008.82 "/>
  <path class="fil2" d="M132093.85 12008.97l0 12008.82c-3315.88,0 -6004.08,-2688.4 -6004.08,-6004.59 0,-3316.03 2688.2,-6004.23 6004.08,-6004.23z"/>
  <polygon class="fil38" points="108076.06,24017.79 120085.38,24017.79 120085.38,12008.97 108076.06,12008.97 "/>
  <path class="fil39" d="M120085.38 24017.79l-12009.33 0c0,-3316.43 2688.71,-6004.59 6004.74,-6004.59 3316.39,0 6004.59,2688.15 6004.59,6004.59z"/>
  <polygon class="fil40" points="96068.05,24017.79 108076,24017.79 108076,12008.97 96068.05,12008.97 "/>
  <path class="fil0" d="M108076.06 12008.97l0 12008.82c-3315.52,0 -6003.72,-2688.4 -6003.72,-6004.59 0,-3315.52 2688.2,-6004.23 6003.72,-6004.23z"/>
  <polygon class="fil41" points="84059.18,24017.79 96068.05,24017.79 96068.05,12008.97 84059.18,12008.97 "/>
  <path class="fil0" d="M96068.05 24017.79l-12008.87 0c0,-3316.43 2688.25,-6004.59 6004.64,-6004.59 3315.93,0 6004.23,2688.15 6004.23,6004.59z"/>
  <polygon class="fil7" points="132093.85,12008.41 144102.26,12008.41 144102.26,0 132093.85,0 "/>
  <path class="fil0" d="M144102.26 12008.41l-12008.41 0c0,-3315.82 2688.35,-6004.23 6004.59,-6004.23 3315.67,0 6003.83,2688.41 6003.83,6004.23z"/>
  <polygon class="fil42" points="120085.38,12008.41 132093.85,12008.41 132093.85,0 120085.38,0 "/>
  <path class="fil0" d="M132093.85 12008.41l-12008.47 0c0,-3315.47 2688.2,-6003.88 6004.38,-6003.88 3315.88,0 6004.08,2688.41 6004.08,6003.88z"/>
  <polygon class="fil9" points="108076.92,12008.41 120085.38,12008.41 120085.38,0 108076.92,0 "/>
  <path class="fil10" d="M120085.38 0l0 12008.41c-3316.03,0 -6004.23,-2688.15 -6004.23,-6004.23 0,-3315.83 2688.2,-6004.18 6004.23,-6004.18z"/>
  <polygon class="fil43" points="96068.41,12008.41 108076.92,12008.41 108076.92,0 96068.41,0 "/>
  <path class="fil0" d="M96068.41 0l12008.52 0c0,3316.03 -2688.2,6004.18 -6004.23,6004.18 -3315.87,0 -6004.28,-2688.15 -6004.28,-6004.18z"/>
  <polygon class="fil44" points="84060,12008.41 96068.41,12008.41 96068.41,0 84060,0 "/>
  <path class="fil0" d="M96068.41 12008.41l-12008.41 0c0,-3315.47 2688.25,-6003.88 6004.23,-6003.88 3315.93,0 6004.18,2688.41 6004.18,6003.88z"/>
  <polygon class="fil45" points="144101.83,12008.87 156111.15,12008.87 156111.15,0.05 144101.83,0.05 "/>
  <path class="fil14" d="M156111.15 12008.87l-12009.33 0c0,-3316.44 2688.71,-6004.59 6004.74,-6004.59 3316.39,0 6004.59,2688.15 6004.59,6004.59z"/>
  <polygon class="fil46" points="168119.17,0.01 156111.22,0.01 156111.22,12008.83 168119.17,12008.83 "/>
  <path class="fil0" d="M156111.17 12008.83l0 -12008.82c3315.52,0 6003.72,2688.41 6003.72,6004.59 0,3315.52 -2688.2,6004.23 -6003.72,6004.23z"/>
  <polygon class="fil47" points="156110.3,24017.81 168118.76,24017.81 168118.76,12009.4 156110.3,12009.4 "/>
  <path class="fil48" d="M168118.76 12009.4l0 12008.41c-3316.03,0 -6004.23,-2688.15 -6004.23,-6004.23 0,-3315.83 2688.2,-6004.18 6004.23,-6004.18z"/>
  <polygon class="fil18" points="144101.78,24017.81 156110.3,24017.81 156110.3,12009.4 144101.78,12009.4 "/>
  <path class="fil0" d="M144101.78 12009.4l12008.52 0c0,3316.03 -2688.2,6004.18 -6004.23,6004.18 -3315.87,0 -6004.28,-2688.15 -6004.28,-6004.18z"/>
  <polygon class="fil0" points="120084.13,24017.8 108075.71,24017.8 108075.71,36026.77 120084.13,36026.77 "/>
  <path class="fil49" d="M120084.13 36026.62l-12008.41 0c0,-3315.82 2688.15,-6004.23 6004.23,-6004.23 3315.83,0 6004.18,2688.41 6004.18,6004.23z"/>
  <polygon class="fil0" points="132092.59,24017.8 120084.08,24017.8 120084.08,36026.77 132092.59,36026.77 "/>
  <path class="fil20" d="M120084.13 36026.62l0 -12008.82c3315.87,0 6004.08,2688.41 6004.08,6004.59 0,3316.03 -2688.2,6004.23 -6004.08,6004.23z"/>
  <polygon class="fil50" points="144101.92,24017.8 132092.59,24017.8 132092.59,36026.62 144101.92,36026.62 "/>
  <path class="fil22" d="M132092.59 24017.8l12009.33 0c0,3316.44 -2688.71,6004.59 -6004.74,6004.59 -3316.39,0 -6004.59,-2688.15 -6004.59,-6004.59z"/>
  <polygon class="fil23" points="156109.92,24017.8 144101.97,24017.8 144101.97,36026.62 156109.92,36026.62 "/>
  <path class="fil0" d="M144101.92 36026.62l0 -12008.82c3315.52,0 6003.72,2688.41 6003.72,6004.59 0,3315.52 -2688.2,6004.23 -6003.72,6004.23z"/>
  <polygon class="fil51" points="168118.79,24017.8 156109.92,24017.8 156109.92,36026.62 168118.79,36026.62 "/>
  <path class="fil0" d="M156109.92 24017.8l12008.87 0c0,3316.44 -2688.25,6004.59 -6004.64,6004.59 -3315.93,0 -6004.23,-2688.15 -6004.23,-6004.59z"/>
  <polygon class="fil52" points="96067.68,24017.78 84059.22,24017.78 84059.22,36026.2 96067.68,36026.2 "/>
  <path class="fil53" d="M84059.22 36026.2l0 -12008.41c3316.03,0 6004.23,2688.15 6004.23,6004.23 0,3315.83 -2688.2,6004.18 -6004.23,6004.18z"/>
  <polygon class="fil54" points="108076.19,24017.78 96067.68,24017.78 96067.68,36026.2 108076.19,36026.2 "/>
  <path class="fil0" d="M108076.19 36026.2l-12008.52 0c0,-3316.03 2688.2,-6004.18 6004.23,-6004.18 3315.87,0 6004.28,2688.16 6004.28,6004.18z"/>
  <polygon class="fil55" points="120084.56,36026.62 108076.15,36026.62 108076.15,48035.03 120084.56,48035.03 "/>
  <path class="fil0" d="M108076.15 36026.62l12008.41 0c0,3315.83 -2688.36,6004.23 -6004.59,6004.23 -3315.67,0 -6003.82,-2688.4 -6003.82,-6004.23z"/>
  <polygon class="fil56" points="132093.03,36026.62 120084.56,36026.62 120084.56,48035.03 132093.03,48035.03 "/>
  <path class="fil0" d="M120084.56 36026.62l12008.47 0c0,3315.47 -2688.2,6003.88 -6004.38,6003.88 -3315.88,0 -6004.08,-2688.41 -6004.08,-6003.88z"/>
  <polygon class="fil57" points="144101.49,36026.62 132093.03,36026.62 132093.03,48035.03 144101.49,48035.03 "/>
  <path class="fil31" d="M132093.03 48035.03l0 -12008.41c3316.03,0 6004.23,2688.15 6004.23,6004.23 0,3315.83 -2688.2,6004.18 -6004.23,6004.18z"/>
  <polygon class="fil58" points="156110.01,36026.62 144101.49,36026.62 144101.49,48035.03 156110.01,48035.03 "/>
  <path class="fil0" d="M156110.01 48035.03l-12008.52 0c0,-3316.03 2688.2,-6004.18 6004.23,-6004.18 3315.88,0 6004.29,2688.15 6004.29,6004.18z"/>
  <polygon class="fil33" points="168118.42,36026.62 156110.01,36026.62 156110.01,48035.03 168118.42,48035.03 "/>
  <path class="fil0" d="M156110.01 36026.62l12008.41 0c0,3315.47 -2688.25,6003.88 -6004.23,6003.88 -3315.93,0 -6004.18,-2688.41 -6004.18,-6003.88z"/>
  <polygon class="fil34" points="108076.59,36026.16 96067.26,36026.16 96067.26,48034.98 108076.59,48034.98 "/>
  <path class="fil35" d="M96067.26 36026.16l12009.33 0c0,3316.44 -2688.71,6004.59 -6004.74,6004.59 -3316.39,0 -6004.59,-2688.15 -6004.59,-6004.59z"/>
  <polygon class="fil59" points="84059.24,48035.02 96067.19,48035.02 96067.19,36026.2 84059.24,36026.2 "/>
  <path class="fil0" d="M96067.24 36026.2l0 12008.82c-3315.52,0 -6003.72,-2688.41 -6003.72,-6004.59 0,-3315.52 2688.2,-6004.23 6003.72,-6004.23z"/>
  <polygon class="fil0" points="48034.67,60043.84 60043.08,60043.84 60043.08,48034.87 48034.67,48034.87 "/>
  <path class="fil1" d="M48034.67 48035.02l12008.41 0c0,3315.83 -2688.15,6004.23 -6004.23,6004.23 -3315.83,0 -6004.18,-2688.41 -6004.18,-6004.23z"/>
  <polygon class="fil0" points="36026.2,60043.84 48034.72,60043.84 48034.72,48034.87 36026.2,48034.87 "/>
  <path class="fil2" d="M48034.67 48035.02l0 12008.82c-3315.88,0 -6004.08,-2688.4 -6004.08,-6004.59 0,-3316.03 2688.2,-6004.23 6004.08,-6004.23z"/>
  <polygon class="fil3" points="24016.88,60043.84 36026.2,60043.84 36026.2,48035.02 24016.88,48035.02 "/>
  <path class="fil4" d="M36026.2 60043.84l-12009.33 0c0,-3316.43 2688.71,-6004.59 6004.74,-6004.59 3316.39,0 6004.59,2688.15 6004.59,6004.59z"/>
  <polygon class="fil5" points="12008.87,60043.84 24016.82,60043.84 24016.82,48035.02 12008.87,48035.02 "/>
  <path class="fil0" d="M24016.88 48035.02l0 12008.82c-3315.52,0 -6003.72,-2688.4 -6003.72,-6004.59 0,-3315.52 2688.2,-6004.23 6003.72,-6004.23z"/>
  <polygon class="fil6" points="-0,60043.84 12008.87,60043.84 12008.87,48035.02 -0,48035.02 "/>
  <path class="fil0" d="M12008.87 60043.84l-12008.87 0c0,-3316.43 2688.25,-6004.59 6004.64,-6004.59 3315.93,0 6004.23,2688.15 6004.23,6004.59z"/>
  <polygon class="fil16" points="72051.12,60043.86 84059.58,60043.86 84059.58,48035.45 72051.12,48035.45 "/>
  <path class="fil17" d="M84059.58 48035.45l0 12008.41c-3316.03,0 -6004.23,-2688.15 -6004.23,-6004.23 0,-3315.83 2688.2,-6004.18 6004.23,-6004.18z"/>
  <polygon class="fil18" points="60042.6,60043.86 72051.12,60043.86 72051.12,48035.45 60042.6,48035.45 "/>
  <path class="fil0" d="M60042.6 48035.45l12008.52 0c0,3316.03 -2688.2,6004.18 -6004.23,6004.18 -3315.87,0 -6004.28,-2688.15 -6004.28,-6004.18z"/>
  <polygon class="fil0" points="132093.85,60043.84 144102.26,60043.84 144102.26,48034.87 132093.85,48034.87 "/>
  <path class="fil37" d="M132093.85 48035.02l12008.41 0c0,3315.83 -2688.15,6004.23 -6004.23,6004.23 -3315.83,0 -6004.18,-2688.41 -6004.18,-6004.23z"/>
  <polygon class="fil0" points="120085.38,60043.84 132093.9,60043.84 132093.9,48034.87 120085.38,48034.87 "/>
  <path class="fil2" d="M132093.85 48035.02l0 12008.82c-3315.88,0 -6004.08,-2688.4 -6004.08,-6004.59 0,-3316.03 2688.2,-6004.23 6004.08,-6004.23z"/>
  <polygon class="fil38" points="108076.06,60043.84 120085.38,60043.84 120085.38,48035.02 108076.06,48035.02 "/>
  <path class="fil39" d="M120085.38 60043.84l-12009.33 0c0,-3316.43 2688.71,-6004.59 6004.74,-6004.59 3316.39,0 6004.59,2688.15 6004.59,6004.59z"/>
  <polygon class="fil40" points="96068.05,60043.84 108076,60043.84 108076,48035.02 96068.05,48035.02 "/>
  <path class="fil0" d="M108076.06 48035.02l0 12008.82c-3315.52,0 -6003.72,-2688.4 -6003.72,-6004.59 0,-3315.52 2688.2,-6004.23 6003.72,-6004.23z"/>
  <polygon class="fil41" points="84059.18,60043.84 96068.05,60043.84 96068.05,48035.02 84059.18,48035.02 "/>
  <path class="fil0" d="M96068.05 60043.84l-12008.87 0c0,-3316.43 2688.25,-6004.59 6004.64,-6004.59 3315.93,0 6004.23,2688.15 6004.23,6004.59z"/>
  <polygon class="fil47" points="156110.3,60043.86 168118.76,60043.86 168118.76,48035.45 156110.3,48035.45 "/>
  <path class="fil48" d="M168118.76 48035.45l0 12008.41c-3316.03,0 -6004.23,-2688.15 -6004.23,-6004.23 0,-3315.83 2688.2,-6004.18 6004.23,-6004.18z"/>
  <polygon class="fil18" points="144101.78,60043.86 156110.3,60043.86 156110.3,48035.45 144101.78,48035.45 "/>
  <path class="fil0" d="M144101.78 48035.45l12008.52 0c0,3316.03 -2688.2,6004.18 -6004.23,6004.18 -3315.87,0 -6004.28,-2688.15 -6004.28,-6004.18z"/>
 </g>
</svg>
