<?xml version="1.0" encoding="UTF-8"?>
<!DOCTYPE svg PUBLIC "-//W3C//DTD SVG 1.1//EN" "http://www.w3.org/Graphics/SVG/1.1/DTD/svg11.dtd">
<!-- Creator: CorelDRAW -->
<svg xmlns="http://www.w3.org/2000/svg" xml:space="preserve" width="2015.01mm" height="496.622mm" version="1.1" style="shape-rendering:geometricPrecision; text-rendering:geometricPrecision; image-rendering:optimizeQuality; fill-rule:evenodd; clip-rule:evenodd"
viewBox="0 0 148422.88 36580.59"
 xmlns:xlink="http://www.w3.org/1999/xlink"
 xmlns:xodm="http://www.corel.com/coreldraw/odm/2003">
 <defs>
  <style type="text/css">
   <![CDATA[
    .fil0 {fill:#F9F9F9}
    .fil1 {fill:#F9F9F9;fill-rule:nonzero}
   ]]>
  </style>
 </defs>
 <g id="Camada_x0020_1">
  <metadata id="CorelCorpID_0Corel-Layer"/>
  <g id="_2670549900784">
   <path class="fil0" d="M21664.15 16993.78l0 -3685.33 8649.05 0c3454.62,0 6278.37,2823.65 6278.37,6278.36l0 3685.33 -8649.14 0c-3454.62,0 -6278.28,-2823.66 -6278.28,-6278.37z"/>
   <path class="fil0" d="M-0 16993.78l0 -3685.33 8649.05 0c3454.71,0 6278.37,2823.65 6278.37,6278.36l0 3685.33 -8649.14 0c-3454.62,0 -6278.28,-2823.66 -6278.28,-6278.37z"/>
   <path class="fil0" d="M19586.9 21653.18l3685.33 0 0 8649.14c0,3454.62 -2823.66,6278.28 -6278.28,6278.28l-3685.33 0 0 -8649.06c0,-3454.71 2823.66,-6278.36 6278.28,-6278.36z"/>
   <path class="fil0" d="M19586.9 0l3685.33 0 0 8649.05c0,3454.71 -2823.66,6278.37 -6278.28,6278.37l-3685.33 0 0 -8649.14c0,-3454.62 2823.66,-6278.28 6278.28,-6278.28z"/>
  </g>
  <polygon class="fil1" points="42426.2,21751.71 44813.88,21751.71 50175.77,32056.5 55495.67,21751.71 57904.34,21751.71 57904.34,36413.05 56019.29,36413.05 55998.38,24704.93 50783.12,34863.17 49547.42,34863.17 44290.26,24704.93 44290.26,36413.05 42426.2,36413.05 "/>
  <path class="fil1" d="M64070.4 25270.46c1717.51,0 3016.03,506.12 3895.74,1518.51 879.71,1012.31 1319.52,2419.04 1319.52,4220.37 0,279.24 -6.97,488.69 -20.9,628.27l-8754.92 0c153.6,991.4 569.02,1780.33 1246.16,2366.77 677.23,586.44 1511.54,879.71 2502.95,879.71 656.23,0 1267.15,-118.66 1832.69,-356.08 565.44,-237.33 1057.7,-572.51 1476.6,-1005.34l1068.16 1110.07c-544.54,586.44 -1200.85,1040.28 -1968.78,1361.42 -768.01,321.14 -1619.75,481.72 -2555.3,481.72 -1089.16,0 -2056.08,-233.84 -2900.85,-701.62 -844.77,-467.78 -1501,-1127.5 -1968.77,-1979.32 -467.78,-851.74 -701.71,-1822.15 -701.71,-2911.31 0,-1089.07 233.93,-2056.08 701.71,-2900.85 467.78,-844.77 1120.52,-1507.97 1958.32,-1989.77 837.8,-481.71 1794.27,-722.53 2869.39,-722.53zm3455.93 4859.18c-55.85,-1005.35 -391.02,-1797.75 -1005.35,-2377.23 -614.41,-579.47 -1424.24,-869.25 -2429.58,-869.25 -977.46,0 -1790.78,293.27 -2440.13,879.71 -649.26,586.44 -1036.7,1375.36 -1162.42,2366.77l7037.49 0z"/>
  <path class="fil1" d="M81316.32 20872l0 15541.05 -1947.87 0 0 -2199.23c-418.9,740.05 -980.95,1309.06 -1686.06,1707.06 -705.11,397.9 -1525.48,596.89 -2461.04,596.89 -1047.25,0 -1972.27,-240.9 -2775.13,-722.61 -802.95,-481.72 -1427.73,-1151.98 -1874.59,-2010.69 -446.78,-858.71 -670.26,-1839.67 -670.26,-2942.76 0,-1089.07 223.47,-2056.08 670.26,-2900.85 446.87,-844.77 1071.65,-1504.49 1874.59,-1979.23 802.87,-474.75 1720.91,-712.16 2754.22,-712.16 949.49,0 1780.33,195.51 2492.4,586.53 712.17,390.93 1270.64,956.46 1675.61,1696.51l0 -6660.5 1947.87 0zm-5696.98 13970.17c726.11,0 1371.88,-167.54 1937.42,-502.63 565.44,-335.17 1008.82,-802.95 1329.97,-1403.33 321.14,-600.38 481.72,-1277.61 481.72,-2031.59 0,-768.02 -160.58,-1452.21 -481.72,-2052.6 -321.14,-600.47 -764.53,-1068.24 -1329.97,-1403.33 -565.54,-335.09 -1211.31,-502.63 -1937.42,-502.63 -726.11,0 -1371.88,171.03 -1937.41,513.08 -565.54,342.15 -1008.83,813.41 -1329.98,1413.79 -321.14,600.39 -481.72,1277.61 -481.72,2031.69 0,753.98 160.58,1431.21 481.72,2031.59 321.14,600.39 764.44,1068.16 1329.98,1403.33 565.53,335.09 1211.3,502.63 1937.41,502.63z"/>
  <polygon class="fil1" points="82400.34,25333.27 84348.21,25333.27 84348.21,36413.05 82400.34,36413.05 "/>
  <g id="_2670549906592">
   <polygon class="fil1" points="87002.67,21730.8 97977.72,21730.8 97956.8,24788.74 90835.59,24788.74 90835.59,28056.13 97412.19,28056.13 97412.19,31114.07 90835.59,31114.07 90835.59,36413.05 87002.67,36413.05 "/>
   <path class="fil1" d="M104036.96 24935.29c1563.91,0 2778.7,359.57 3644.39,1078.7 865.68,719.13 1305.57,1727.96 1319.52,3026.49l0 7372.58 -3665.38 0 0 -1277.61c-753.99,963.43 -1891.93,1445.16 -3413.93,1445.16 -1200.85,0 -2146.87,-324.64 -2838.04,-973.89 -691.16,-649.35 -1036.79,-1504.58 -1036.79,-2565.76 0,-1075.13 373.51,-1912.93 1120.61,-2513.4 747.02,-600.39 1818.67,-907.59 3214.94,-921.53l2953.21 0 0 -125.63c0,-544.63 -184.96,-963.52 -554.99,-1256.7 -370.02,-293.27 -904.1,-439.9 -1602.24,-439.9 -474.75,0 -1008.92,76.84 -1602.33,230.44 -593.41,153.61 -1190.31,376.99 -1790.78,670.26l-1026.26 -2513.4c921.53,-418.9 1804.72,-729.59 2649.49,-932.07 844.77,-202.48 1720.99,-303.72 2628.58,-303.72zm-963.43 9111c558.48,0 1047.16,-136.09 1466.07,-408.45 418.9,-272.27 684.19,-624.78 795.89,-1057.71l0 -984.35 -2220.14 0c-1047.16,0 -1570.79,390.94 -1570.79,1172.89 0,390.93 136.09,701.62 408.36,932.07 272.35,230.36 645.86,345.54 1120.61,345.54z"/>
   <path class="fil1" d="M113365.68 26966.97c390.93,-656.23 897.13,-1158.94 1518.42,-1508.05 621.39,-349.02 1330.06,-523.63 2125.95,-523.63l0 3414.02c-125.72,-13.94 -314.18,-20.91 -565.53,-20.91 -879.71,0 -1591.79,205.96 -2136.33,617.81 -544.62,411.94 -858.8,973.98 -942.52,1686.06l0 5780.79 -3728.2 0 0 -11331.13 3728.2 0 0 1885.05z"/>
   <path class="fil1" d="M132768.83 24935.29c1228.74,0 2213.17,391.02 2953.22,1172.97 740.04,781.95 1110.07,1836.09 1110.07,3162.66l0 7142.13 -3728.2 0 0 -6073.97c0,-642.29 -167.54,-1148.49 -502.71,-1518.51 -335.09,-370.02 -788.92,-554.99 -1361.34,-554.99 -656.32,13.94 -1176.46,254.76 -1560.42,722.53 -383.96,467.78 -575.98,1078.7 -575.98,1832.69l0 5592.25 -3728.2 0 0 -6073.97c0,-642.29 -167.54,-1148.49 -502.63,-1518.51 -335.08,-370.02 -788.92,-554.99 -1361.42,-554.99 -656.23,13.94 -1179.86,254.76 -1570.88,722.53 -390.94,467.78 -586.44,1078.7 -586.44,1832.69l0 5592.25 -3707.2 0 0 -11331.13 3707.2 0 0 1864.14c391.02,-656.32 897.13,-1155.46 1518.51,-1497.61 621.38,-342.05 1344,-513.17 2167.77,-513.17 921.62,0 1710.54,223.47 2366.77,670.26 656.23,446.87 1124.01,1068.16 1403.33,1864.05 362.97,-837.71 883.11,-1469.55 1560.34,-1895.42 677.23,-425.96 1476.61,-638.89 2398.22,-638.89z"/>
   <path class="fil1" d="M143458.98 24935.29c1563.9,0 2778.7,359.57 3644.38,1078.7 865.68,719.13 1305.57,1727.96 1319.52,3026.49l0 7372.58 -3665.38 0 0 -1277.61c-753.99,963.43 -1891.93,1445.16 -3413.93,1445.16 -1200.85,0 -2146.87,-324.64 -2838.03,-973.89 -691.17,-649.35 -1036.8,-1504.58 -1036.8,-2565.76 0,-1075.13 373.51,-1912.93 1120.61,-2513.4 747.02,-600.39 1818.67,-907.59 3214.94,-921.53l2953.21 0 0 -125.63c0,-544.63 -184.96,-963.52 -554.99,-1256.7 -370.02,-293.27 -904.1,-439.9 -1602.24,-439.9 -474.75,0 -1008.91,76.84 -1602.33,230.44 -593.41,153.61 -1190.31,376.99 -1790.78,670.26l-1026.26 -2513.4c921.53,-418.9 1804.72,-729.59 2649.49,-932.07 844.77,-202.48 1720.99,-303.72 2628.59,-303.72zm-963.44 9111c558.48,0 1047.17,-136.09 1466.07,-408.45 418.9,-272.27 684.19,-624.78 795.89,-1057.71l0 -984.35 -2220.14 0c-1047.16,0 -1570.79,390.94 -1570.79,1172.89 0,390.93 136.09,701.62 408.36,932.07 272.35,230.36 645.86,345.54 1120.61,345.54z"/>
  </g>
  <path class="fil1" d="M43973.29 15558.73c369.15,0 703.01,82.24 1001.6,246.91 298.49,164.66 532.86,391.81 702.93,681.32 170.07,289.52 255.19,613.36 255.19,971.63 0,358.26 -85.99,682.19 -257.89,971.71 -171.9,289.52 -408.01,516.57 -708.42,681.23 -300.32,164.67 -636.89,247 -1009.61,247l-1530.89 0 0 -3799.81 1547.09 0zm10.89 3327.5c264.17,0 503.94,-61.51 719.23,-184.53 215.37,-123.02 385.44,-293.09 510.29,-510.29 124.85,-217.12 187.32,-459.59 187.32,-727.33 0,-271.48 -63.34,-515.69 -190.02,-732.9 -126.68,-217.12 -299.45,-388.06 -518.4,-512.91 -218.94,-124.85 -462.29,-187.32 -730.11,-187.32l-1015.1 0 0 2855.28 1036.79 0zm6586.27 472.31l-754.51 -1194.23c-86.87,7.23 -157.43,10.89 -211.71,10.89l-966.23 0 0 1183.34 -521.19 0 0 -3799.81 1487.41 0c481.28,0 853.13,111.25 1115.56,333.78 262.34,222.6 393.54,538.35 393.54,947.23 0,307.64 -71.44,566.4 -214.41,776.29 -142.97,209.88 -348.33,361.92 -616.16,456.01l884.85 1286.5 -597.16 0zm-966.22 -1655.65c325.68,0 575.38,-71.44 749.1,-214.41 173.73,-142.97 260.6,-353.73 260.6,-632.44 0,-271.4 -86.87,-476.76 -260.6,-616.07 -173.72,-139.32 -423.43,-209.01 -749.1,-209.01l-966.23 0 0 1671.94 966.23 0zm5538.66 -2176.74c365.49,0 701.19,85.03 1006.92,255.1 305.81,170.07 547.41,402.6 724.71,697.53 177.3,294.92 266,619.73 266,974.42 0,354.69 -88.69,681.23 -266,979.81 -177.3,298.58 -418.9,533.82 -724.71,705.72 -305.73,171.9 -641.42,257.8 -1006.92,257.8 -365.49,0 -701.19,-85.9 -1007,-257.8 -305.81,-171.9 -547.32,-407.14 -724.63,-705.72 -177.39,-298.58 -266,-625.12 -266,-979.81 0,-354.69 88.61,-679.5 266,-974.42 177.3,-294.92 417.94,-527.46 721.92,-697.53 303.98,-170.07 640.55,-255.1 1009.7,-255.1zm5.4 466.82c-264.16,0 -509.34,65.17 -735.51,195.42 -226.18,130.25 -406.27,306.68 -540.18,529.28 -133.82,222.52 -200.82,467.7 -200.82,735.52 0,267.82 67,513.87 200.82,738.22 133.91,224.43 314,402.6 540.18,534.69 226.18,132.17 471.35,198.21 735.51,198.21 264.17,0 507.6,-66.04 730.11,-198.21 222.61,-132.08 399.91,-310.26 531.99,-534.69 132.08,-224.35 198.12,-470.39 198.12,-738.22 0,-267.82 -66.04,-513 -198.12,-735.52 -132.08,-222.6 -309.38,-399.03 -531.99,-529.28 -222.52,-130.26 -465.94,-195.42 -730.11,-195.42zm6689.43 1509.1l461.42 0 0 1395.06c-191.76,152.03 -416.2,273.22 -673.14,363.75 -256.93,90.44 -512.04,135.65 -765.4,135.65 -365.49,0 -700.23,-85.9 -1004.21,-257.8 -303.98,-171.9 -543.75,-407.14 -719.31,-705.72 -175.47,-298.58 -263.2,-625.12 -263.2,-979.81 0,-354.69 88.6,-679.5 265.99,-974.42 177.3,-294.92 419.77,-527.46 727.33,-697.53 307.64,-170.07 647.78,-255.1 1020.59,-255.1 264.17,0 521.97,47.05 773.51,141.14 251.53,94.09 469.6,222.52 654.13,385.35l-298.58 380.04c-151.95,-141.14 -326.63,-250.66 -523.8,-328.47 -197.25,-77.8 -399.03,-116.66 -605.26,-116.66 -271.48,0 -521.19,65.08 -749.1,195.42 -228.01,130.25 -408.1,307.55 -540.18,531.9 -132.08,224.43 -198.12,470.48 -198.12,738.3 0,267.82 67,514.82 200.82,741 133.91,226.18 314.87,405.31 542.88,537.39 228.01,132.08 477.71,198.12 749.11,198.12 159.27,0 321.14,-26.22 485.81,-78.76 164.67,-52.45 317.57,-125.72 458.72,-219.82l0 -1129.06zm5712.31 1856.47l-401.65 -922.83 -2003.11 0 -396.25 922.83 -548.28 0 1688.23 -3799.81 542.79 0 1682.84 3799.81 -564.58 0zm-2198.44 -1395.05l1595.88 0 -803.39 -1845.67 -792.5 1845.67zm7210.44 1395.05l-754.51 -1194.23c-86.87,7.23 -157.44,10.89 -211.72,10.89l-966.22 0 0 1183.34 -521.19 0 0 -3799.81 1487.41 0c481.29,0 853.14,111.25 1115.56,333.78 262.34,222.6 393.54,538.35 393.54,947.23 0,307.64 -71.44,566.4 -214.41,776.29 -142.98,209.88 -348.33,361.92 -616.16,456.01l884.85 1286.5 -597.16 0zm-966.23 -1655.65c325.68,0 575.38,-71.44 749.11,-214.41 173.72,-142.97 260.59,-353.73 260.59,-632.44 0,-271.4 -86.87,-476.76 -260.59,-616.07 -173.73,-139.32 -423.43,-209.01 -749.11,-209.01l-966.22 0 0 1671.94 966.22 0zm3877.53 -2144.16l521.19 0 0 3799.81 -521.19 0 0 -3799.81zm5869.74 3799.81l-401.65 -922.83 -2003.11 0 -396.25 922.83 -548.29 0 1688.24 -3799.81 542.79 0 1682.83 3799.81 -564.57 0zm-2198.44 -1395.05l1595.88 0 -803.39 -1845.67 -792.5 1845.67zm6939.03 -1612.26c-177.3,-112.22 -360.96,-196.3 -550.98,-252.41 -189.93,-56.11 -364.62,-84.16 -523.8,-84.16 -220.78,0 -397.21,42.52 -529.29,127.55 -132.08,85.03 -198.13,201.78 -198.13,350.15 0,133.91 39.82,243.35 119.45,328.38 79.63,85.12 177.3,152.04 293.09,200.91 115.79,48.79 276.89,105.86 483.11,170.94 256.94,79.63 465.08,155.61 624.26,228.01 159.27,72.4 295,180.09 407.13,322.97 112.22,142.98 168.33,332.04 168.33,567.28 0,217.12 -58.81,407.14 -176.43,569.98 -117.62,162.84 -282.28,288.65 -494,377.25 -211.72,88.69 -455.06,133.04 -730.11,133.04 -278.63,0 -550.11,-54.28 -814.28,-162.84 -264.16,-108.56 -492.17,-253.36 -683.94,-434.32l233.41 -450.53c180.96,177.3 384.48,313.91 610.66,409.84 226.18,95.93 446.09,143.85 659.54,143.85 253.36,0 453.32,-49.75 599.86,-149.25 146.54,-99.59 219.82,-234.37 219.82,-404.44 0,-133.91 -39.82,-244.3 -119.36,-331.16 -79.63,-86.87 -180.09,-155.61 -301.28,-206.23 -121.28,-50.71 -284.99,-106.81 -491.3,-168.33 -253.28,-75.97 -459.59,-150.12 -618.85,-222.52 -159.18,-72.41 -293.96,-179.13 -404.35,-320.28 -110.39,-141.14 -165.63,-327.51 -165.63,-559.17 0,-202.66 56.11,-381.79 168.33,-537.39 112.13,-155.6 269.56,-275.06 472.22,-358.26 202.65,-83.2 437.89,-124.85 705.72,-124.85 228.01,0 451.48,33.46 670.44,100.46 218.94,66.91 413.41,156.48 583.48,268.7l-217.12 466.82z"/>
  <path class="fil0" d="M83374.23 22108.4c678.18,0 1228.03,549.86 1228.03,1228.04 0,678.18 -549.85,1228.04 -1228.03,1228.04 -678.19,0 -1228.04,-549.86 -1228.04,-1228.04 0,-678.18 549.85,-1228.04 1228.04,-1228.04z"/>
 </g>
</svg>
